<?xml version="1.0" encoding="UTF-8"?>
<svg width="72px" height="64px" viewBox="0 0 72 64" version="1.1" xmlns="http://www.w3.org/2000/svg" xmlns:xlink="http://www.w3.org/1999/xlink">
    <!-- Generator: Sketch 51.3 (57544) - http://www.bohemiancoding.com/sketch -->
    <title>digger</title>
    <desc>Created with Sketch.</desc>
    <defs></defs>
    <g id="Page-1" stroke="none" stroke-width="1" fill="none" fill-rule="evenodd">
        <g id="digger" fill="#1B7DCB" fill-rule="nonzero">
            <path d="M8.39995312,52.9218281 C6.41179687,52.9218281 4.79995312,54.5336719 4.79995312,56.5218281 C4.79995312,58.5099844 6.41165625,60.1218281 8.39995312,60.1218281 C10.38825,60.1218281 11.9999531,58.510125 11.9999531,56.5218281 C11.9978437,54.5345156 10.3872656,52.9240781 8.39995312,52.9218281 Z M8.39995312,57.7219219 C7.7371875,57.7219219 7.2,57.1847344 7.2,56.5219687 C7.2,55.8592031 7.7371875,55.3220156 8.39995312,55.3220156 C9.06271875,55.3220156 9.59990625,55.8592031 9.59990625,56.5219687 C9.59934375,57.1843125 9.0624375,57.7212187 8.39995312,57.7219219 Z" id="Shape"></path>
            <path d="M40.7999531,56.5218281 C40.7999531,58.5099844 42.4116562,60.1218281 44.3999531,60.1218281 C46.38825,60.1218281 47.9999531,58.510125 47.9999531,56.5218281 C47.9999531,54.5335312 46.3881094,52.9218281 44.3999531,52.9218281 C42.4126406,52.9240781 40.8022031,54.5345156 40.7999531,56.5218281 Z M45.6000469,56.5218281 C45.6000469,57.1845937 45.0628594,57.7217812 44.4000937,57.7217812 C43.7373281,57.7217812 43.2001406,57.1845937 43.2001406,56.5218281 C43.2001406,55.8590625 43.7373281,55.321875 44.4000937,55.321875 C45.0624375,55.3225781 45.5993437,55.8593437 45.6000469,56.5218281 Z" id="Shape"></path>
            <path d="M71.2583437,18.2143125 C71.1130781,18.1537031 70.9574063,18.1223437 70.8000469,18.1219219 L53.0039531,18.1219219 C52.6855781,18.1219219 52.3801406,18.2483438 52.1548594,18.4734844 L41.8505625,28.7894531 C40.4002969,28.0885781 38.8106719,27.7236562 37.1999531,27.7218281 L37.1999531,23.176125 C37.1999531,23.1193125 37.1864531,23.06475 37.1825156,23.0085 C37.1847656,22.9782656 37.1999531,22.9525312 37.1999531,22.9217344 C37.195875,22.7269688 37.1432812,22.5364219 37.0468125,22.3671094 C37.0269844,22.312125 37.0165781,22.2546094 36.9925312,22.2010312 L29.6434687,5.66507812 L29.6337656,5.64328125 L27.8132344,1.546875 C27.4277812,0.680484375 26.5684219,0.1220625 25.6200469,0.121921875 L2.40004688,0.121921875 C1.07507812,0.123328125 0.001546875,1.197 0,2.52182812 L0,34.9218281 C0.0028125,37.571625 2.15015625,39.7189687 4.79995313,39.7217812 L5.99990625,39.7217812 L5.99990625,49.3218281 C2.68790625,49.3257656 0.0039375,52.0097344 0,55.321875 L0,57.7219219 C0.0039375,61.0340625 2.68790625,63.7180312 6.00004688,63.7219687 L46.8,63.7219687 C50.1121406,63.7180312 52.7961094,61.0340625 52.8000469,57.7219219 L52.8000469,55.321875 C52.7961094,52.4721094 50.7915,50.0169375 48.0000937,49.4431875 L48.0000937,38.5219687 C47.9982656,36.91125 47.6334844,35.321625 46.9326094,33.8713594 L55.4930156,25.3219219 L64.8,25.3219219 L64.8,45.3688594 L54.1904063,61.87275 C53.95275,62.2420312 53.935875,62.7115781 54.14625,63.0970312 C54.356625,63.4824844 54.7607813,63.7221094 55.1999531,63.7219687 L65.9999531,63.7219687 C69.3120938,63.7180312 71.9960625,61.0340625 72,57.7219219 L72,19.321875 C71.9981719,18.837 71.7059531,18.4005 71.2583437,18.2143125 Z M37.1999531,30.121875 C41.3737031,30.1272187 44.9125313,33.1917187 45.5144063,37.321875 L37.1999531,37.321875 L37.1999531,30.121875 Z M45.6000469,39.7219219 L45.6000469,49.3219687 L32.4,49.3219687 L32.4,39.7219219 L45.6000469,39.7219219 Z M27.7534687,7.32192187 L34.1535937,21.7219219 L20.3999063,21.7219219 L20.3999063,7.32192187 L27.7534687,7.32192187 Z M2.40004688,7.32192187 L13.2000469,7.32192187 L13.2017344,21.7219219 L2.40004688,21.7219219 L2.40004688,7.32192187 Z M4.79995312,37.321875 C3.475125,37.3203281 2.40145312,36.2466562 2.39990625,34.9218281 L2.39990625,24.1218281 L13.1999062,24.1218281 C14.5247344,24.1202812 15.5984062,23.04675 15.5999531,21.7217812 L15.5999531,7.32178125 C15.5984062,5.99695312 14.5247344,4.92328125 13.1999062,4.92173437 L2.39990625,4.92173437 L2.39990625,2.52182812 L25.6200469,2.52182812 L26.6868281,4.921875 L20.4000469,4.921875 C19.0752187,4.92342187 18.0015469,5.99695312 18,7.32192187 L18,21.7219219 C18.0015469,23.04675 19.0750781,24.1204219 20.4000469,24.1219688 L34.8001875,24.1219688 L34.80075,28.9184063 L34.8000469,37.321875 L4.79995312,37.321875 Z M20.4000469,45.7218281 L20.4000469,43.3217812 L30.0000938,43.3217812 L30.0000938,45.7218281 L20.4000469,45.7218281 Z M29.9999531,48.121875 L29.9999531,49.3218281 L20.3999063,49.3218281 L20.3999063,48.121875 L29.9999531,48.121875 Z M20.4000469,40.921875 L20.4000469,39.7219219 L30.0000938,39.7219219 L30.0000938,40.921875 L20.4000469,40.921875 Z M18,39.7219219 L18,49.3219687 L8.39995312,49.3219687 L8.39995312,39.7219219 L18,39.7219219 Z M50.4,55.321875 L50.4,57.7219219 C50.3978906,59.7092344 48.7873125,61.3198125 46.8,61.3219219 L6.00004688,61.3219219 C4.01273438,61.3198125 2.40215625,59.7092344 2.40004688,57.7219219 L2.40004688,55.321875 C2.40215625,53.3345625 4.01273438,51.7239844 6.00004688,51.721875 L46.8,51.721875 C48.7873125,51.7239844 50.3978906,53.3345625 50.4,55.321875 Z M45.6260625,31.7835 C45.127125,31.1608125 44.5611094,30.5949375 43.9385625,30.0958594 L52.5422813,21.4821562 L53.6722031,23.7477656 L45.6260625,31.7835 Z M55.9425938,22.921875 L54.7457344,20.5218281 L67.9031719,20.5218281 L65.503125,22.921875 L55.9425938,22.921875 Z M69.5999531,57.7219219 C69.5978437,59.7092344 67.9872656,61.3198125 65.9999531,61.3219219 L57.3977812,61.3219219 L66.6549844,46.9219219 L69.5999531,46.9219219 L69.5999531,57.7219219 Z M69.5999531,44.521875 L67.1999062,44.521875 L67.1999062,24.6187969 L69.5999531,22.21875 L69.5999531,44.521875 Z" id="Shape"></path>
        </g>
    </g>
</svg>